<?xml version="1.0" encoding="UTF-8"?>
<!DOCTYPE svg PUBLIC "-//W3C//DTD SVG 1.1//EN" "http://www.w3.org/Graphics/SVG/1.1/DTD/svg11.dtd">
<!-- Creator: CorelDRAW -->
<svg xmlns="http://www.w3.org/2000/svg" xml:space="preserve" width="250mm" height="100mm" version="1.1" style="shape-rendering:geometricPrecision; text-rendering:geometricPrecision; image-rendering:optimizeQuality; fill-rule:evenodd; clip-rule:evenodd"
viewBox="0 0 25000 10000"
 xmlns:xlink="http://www.w3.org/1999/xlink"
 xmlns:xodm="http://www.corel.com/coreldraw/odm/2003">
 <defs>
  <style type="text/css">
   <![CDATA[
    .fil8 {fill:#A7C4D2}
    .fil1 {fill:#91D8F7}
    .fil7 {fill:#9DD3AF}
    .fil3 {fill:#5CC6D0}
    .fil2 {fill:#51A8B1}
    .fil9 {fill:#9BA3AD}
    .fil4 {fill:#E77B44}
    .fil0 {fill:#E77B44}
    .fil5 {fill:#F87536}
    .fil6 {fill:white}
   ]]>
  </style>
 </defs>
 <g id="Camada_x0020_1">
  <metadata id="CorelCorpID_0Corel-Layer"/>
  <path class="fil0" d="M11424.1 7681.29c123.63,171.36 169.05,746.01 287.55,567.52 20.56,-30.97 223.55,-632.06 237.99,-694.66 -96.28,-10.6 -90.1,11.71 -118.72,97.27l-164.9 484.36c-39.8,-88.44 -71.05,-196.77 -105.14,-297.76 -27.22,-80.61 -49.81,-243.52 -119.79,-284.48 -104.3,-19.55 -131.13,379.23 -256.61,574.22 -36.57,-53.96 -90.41,-247.91 -111.62,-313.89 -66.84,-208 -55.5,-255.2 -144.99,-262.98 -13.86,25.97 -16.78,30.09 2.15,90.39l99.42 288.26c82.33,241.65 140.47,529.7 237.99,221.36l156.67 -469.61z"/>
  <path class="fil0" d="M12972.46 8202.72l2.09 -260.27c145.95,-0.92 420.63,-38.6 428.62,126.49 8.85,183.32 -296.44,134.24 -430.71,133.78zm4.64 -581.54c133.22,-0.25 398.9,-38.48 386.82,133.44 -10.85,154.39 -256.39,120.1 -387.83,119.08l1.01 -252.52zm416.82 237.22c36.44,-45.76 53.5,-62.94 46.96,-137.34 -18.2,-207.66 -355.79,-181.23 -546.2,-164.91l2.95 707.78c93.52,24.34 419.15,19.73 493.83,-23.57 57.56,-33.4 99.05,-98.31 86.51,-189.24 -12.66,-92.08 -63.31,-100.01 -119.39,-148.19l35.34 -44.53z"/>
  <path class="fil0" d="M20564.34 7916.3c-52.43,47.66 -207.63,32.82 -293.95,20.62l14.01 -318.35c75.2,-8.52 192.5,-14.17 247.36,12.69 101.14,1.38 77.26,13.4 153.14,63.77l-6.36 158.2c-41.37,30.52 -57.2,53.91 -114.2,63.07zm15.36 69.08c179.38,-20.01 239.1,-215.92 144.69,-347.45 -83.41,-116.2 -355.08,-87.74 -524.59,-86.88 2.52,129.29 5.37,259.22 3.68,388.54 -1.63,125.42 -35.43,341.62 35.59,341.74 67.95,0.15 39.46,-140.69 39.03,-275.42l217.58 3.16c71.76,72.69 172.35,309.04 287.53,260.43 -33.62,-73.54 -156.73,-225.24 -203.51,-284.12z"/>
  <path class="fil0" d="M16525.19 7631.75c79.99,-15.55 167.42,-7.47 249.69,-6.21 266.33,4.15 183.69,11.71 211.62,-34.23 -26.52,-48.9 6.52,-18.14 -47.66,-35.65l-499.15 -6.06 2.03 725.09 445.18 1.81c91.4,-2.24 82.7,14.2 105.9,-43.67 -23.66,-52.46 5.78,-33.25 -87.37,-35.65 -108.73,-2.85 -278.34,21.3 -379.23,-7.46l5.01 -237.13c159.65,-18.65 346.01,25.57 411.44,-31.35 -22.84,-60.48 26.09,-42.04 -92.17,-47.94 -86.14,-4.3 -196.9,13.92 -322.22,-0.4l-3.07 -241.15z"/>
  <path class="fil0" d="M14126.6 7633.9c531.13,-146.59 691.15,592.76 118.8,573.64l-117.02 -6.36 -3.81 -78.31 0 -36.66 0.46 -201.63 1.57 -250.68zm-81.72 639.9c140.69,7.93 358.33,19.79 470.47,-45.95 208.24,-122.09 383.81,-730.18 -468.38,-669.73l-2.09 715.68z"/>
  <path class="fil0" d="M18078.01 7621.73c372.68,-97.88 502.71,491.68 132.91,582.25 -369.83,90.59 -502.86,-485.08 -132.91,-582.25zm424.53 372.84c121.51,-503.48 -635.26,-597.89 -717.41,-161.87 -93.92,498.44 604.74,628.72 717.41,161.87z"/>
  <path class="fil0" d="M19555.75 7622.07c81.16,-0.86 162.35,-1.29 243.52,0.21 226.64,4.28 176.95,15.71 204.98,-30.97 -26.43,-55.66 36.91,-28.4 -74.86,-40.17l-453.42 -2.03 1.29 725.86 502.77 -4.03c50.59,-17.98 20.35,14.08 42.13,-38.11 -26.7,-47.2 25.6,-25.9 -74.64,-34.91l-392.05 2.71 -1.38 -251.67c90.53,0.1 364.69,40.08 409.75,-27.72 -21.82,-64.13 41.33,-31.93 -70.96,-46.59l-332.95 3.48 -3.32 -158.52 -0.86 -97.54z"/>
  <path class="fil0" d="M14979.5 7625.36c84.88,-5.97 170.65,-2.74 255.84,-1.29 74.43,1.26 171.45,23.84 196.13,-32.76 -21.39,-55.66 2.58,-35.87 -86.3,-37.1l-445.67 -2.76 2.98 722.59 463.84 2.25c92.29,-4.86 76.06,10.66 81.16,-61.77 -62.29,-37.65 -368.5,-11.71 -468.66,-16.14l6.05 -252.27 359.51 -2.4c57.28,-19.46 21.63,16.32 46.86,-40.78 -37.46,-44.66 12.33,-23.82 -81.41,-30.37l-333.5 0.96 3.17 -248.16z"/>
  <path class="fil0" d="M12228.29 7625.23c174.16,-7.28 487.65,41.46 449.76,-44.07 -19.33,-43.67 -79.84,-26.79 -137.22,-26.61l-389.71 -3.35 2.67 726.19 497.15 -6.2c38.02,-8.39 30.83,-7.78 50.59,-20.01 -29.6,-65.3 41.61,-44.56 -103.54,-51.48l-361.62 1.05 -6.51 -247.73 409.77 -13.43c-2.18,-114.75 -139.3,-44.65 -407.25,-63.31l-4.09 -251.05z"/>
  <path class="fil0" d="M18812.01 7626.22c173.02,-16.47 392.2,-16.29 397.14,167.15 5.23,193.36 -220.87,179.04 -397.27,162.42l0.13 -329.57zm-4 405.57c233.29,-0.04 525.45,19.26 481.6,-274.56 -35.96,-240.85 -319.92,-205.91 -557.38,-205.32 -1.11,129.19 1.47,258.3 0.58,387.68 -0.4,61.43 -0.95,122.44 -2.67,183.84 -4.15,147.48 0.4,134.23 42.59,154.49 60.51,-33.29 30.64,-110.42 35.28,-246.13z"/>
  <path class="fil0" d="M15570.69 7554.12c11.73,45.54 287.58,723.98 343.36,724.38 51.57,0.37 339.37,-679.08 356.4,-729.42 -118.13,2.06 -100.37,17.86 -137.86,115.12 -38.82,100.62 -174.13,420.51 -219.21,478.31 -50.74,-72.62 -174.74,-386.2 -216.02,-499.88 -36.97,-101.91 -14.96,-103.78 -126.67,-88.51z"/>
  <path class="fil0" d="M17184.85 8274.78l452.4 1.23c84.48,-18.28 29.44,21.45 53.47,-43.18 -30.58,-50.58 -71.6,-29.87 -146.03,-29.96l-283.84 0.98 2.24 -502.55c-0.4,-197.55 9.62,-125.24 -30,-152.22 -60.32,22.43 -23.32,-9.22 -45.48,42.93l-3.69 549.18 0.93 133.59z"/>
  <path class="fil1" d="M18728.66 3602.62c282.8,-13.25 720.54,-70.1 715.9,258.7 -2.21,156.82 -92.53,236.48 -243.77,252.83 -117.79,12.72 -348.31,9.62 -467.73,1.35l-4.4 -512.88zm670.08 724.72c453.39,-133.04 390.82,-685.63 209.16,-850.51 -115.21,-104.61 -306.8,-148.46 -512.92,-147.63 -183.77,0.73 -485.62,-18.01 -654.74,4.82l-1.01 1570.64 293 0.25 -2.86 -517.4 347.24 -0.77c138.23,166.17 242.1,354.55 384.91,518.57l329.82 -1.32c-64.78,-140.14 -337.99,-435.75 -392.6,-576.65z"/>
  <path class="fil1" d="M17119.14 3581.54c328.74,-82.77 573.8,149.94 624.81,422.59 61,325.94 -130,589.28 -381.44,653.11 -695.5,176.56 -905.76,-909.02 -243.37,-1075.7zm922.23 683.2c207.81,-1082.75 -1397.34,-1339.45 -1608.16,-316.3 -226.44,1099.07 1402.2,1389.39 1608.16,316.3z"/>
  <path class="fil1" d="M14966.5 4642.15l-1.75 -1044.48c309.47,0.21 845.37,-53.32 850.13,520.6 4.73,571.95 -538.79,527.23 -848.38,523.88zm-288.67 265.77c319.86,3.08 762.89,37.31 1021.16,-98.28 570.05,-299.33 543.83,-1115.75 -13.74,-1387.63 -282.18,-137.59 -670.63,-96.84 -1008.98,-98.62l1.56 1584.53z"/>
  <path class="fil1" d="M11579.97 4644.73c99.42,-173.66 546.38,-651.66 700.59,-852.5 232.15,-302.31 204.62,-118.35 208.18,-469.49l-1268.12 -0.34 1.6 265.87 856.74 2.21c-15.76,70.93 -71.27,116.56 -113.64,161.53 -181.84,193.02 -452.32,557.9 -624.05,750.84 -142.07,159.65 -158.45,126.49 -147.79,403.75l1325.75 2.71 -1.48 -265.87 -937.78 1.29z"/>
  <path class="fil1" d="M13535.1 3691.4c27.07,23.51 6.27,0.46 30.92,33.35l241.03 559.99 -519.37 -5.47 247.42 -587.87zm-373.85 856.9l764.42 5.25 146.07 352.16 315.12 1.29 -717.37 -1584.84 -253.97 5.19 -693.34 1578.82 290.63 -0.74 148.44 -357.13z"/>
  <path class="fil1" d="M10971.08 5777.6c254.92,0.56 678.28,-76.18 660.12,244.78 -16.2,285.78 -405.11,234.76 -657.02,228.89l-3.1 -473.67zm597.83 668.3c94.83,-59.19 236.78,-91.12 300.21,-298.07 56.31,-183.71 11.07,-356.3 -97.29,-461.99 -222.9,-217.4 -636.71,-136.05 -1059.18,-151.17l-0.7 1423.71 259.62 -4.05 3.87 -469.19 316.45 -0.8c72.92,115.53 247.48,378.19 343.09,474.14l303.51 -3.91 -369.58 -508.67z"/>
  <path class="fil1" d="M18144.63 5783.1c274.56,-2.58 710.52,-66.87 634.28,290.97 -46.25,217.22 -378.99,188.18 -634.92,175.54l1.96 -188.6 -1.32 -277.91zm590.98 662.8c139.46,-86.88 247.14,-117.34 294.62,-302.74 46.96,-183.32 -9.89,-368.23 -104.09,-463.25 -187.15,-188.76 -722.69,-152.16 -1038.49,-135.96l-3.78 1415.63 259.29 -1.81 2.36 -472.38 311.01 -4.8c43.98,104.06 285.22,375.12 338.94,479.02l309.04 -5.38 -368.9 -508.33z"/>
  <polygon class="fil1" points="23676.37,5786.49 24493.41,5784.3 24496.45,5540.48 23415.76,5540.54 23412.93,6966.31 24502.23,6959.67 24497.28,6728.51 23673.63,6727.92 23675.35,6368.98 24409.35,6365.35 24412.15,6132.22 23675.08,6131.54 "/>
  <polygon class="fil1" points="19647.45,5786.79 20473.49,5784.58 20476.01,5539.52 19392.68,5543.95 19391.58,6963.88 20481.24,6955.37 20478.96,6729.06 19648.9,6722.15 19649.02,6368.05 20375.61,6362.8 20384.59,6130.28 19647.33,6127.21 "/>
  <polygon class="fil1" points="16726.94,5783.2 17540.35,5780.15 17545.27,5538.54 16470.36,5540.26 16468.33,6964.04 17552.74,6958.29 17551.54,6726.48 16729.28,6726.48 16726.42,6366.58 17446.34,6364.37 17454.39,6130.1 16727.92,6129.15 "/>
  <path class="fil1" d="M9069.08 5540.69c10.27,270.41 -30.48,777.15 25.76,1008.16 64.63,265.59 273.05,439.5 597.18,439.56 801.33,0.21 602.34,-904.23 615,-1449.01l-269.76 -1.07c11.99,251.5 11.03,545.64 5.1,798.26 -5.65,240.29 -117.7,414.29 -368.54,405.38 -243.51,-8.67 -335.49,-183.32 -341.86,-423.45 -6.76,-255.48 -1.9,-527.43 1.82,-782.81l-264.7 4.98z"/>
  <path class="fil1" d="M14589.48 5781.63c159.71,-2.27 427.14,-25.14 529.97,57.5 65.67,52.8 101.38,185.53 57.96,300.22 -76.68,202.55 -363.01,173.3 -589.01,159.9l1.66 -274.9 -0.58 -242.72zm1.84 758.12c241.99,-35.52 442.91,39.25 653.33,-94.83 135.22,-86.18 257.38,-265.37 208.27,-519.1 -89.83,-464.2 -655.02,-384.08 -1123,-383.93l0.24 1416.37 258.73 -1.41 2.43 -417.1z"/>
  <path class="fil1" d="M8613.64 6581c-148.16,116.35 -330.31,241.55 -576.81,127.04 -165.37,-76.83 -291.89,-224.65 -279.94,-482.7 9.99,-215.19 148.38,-389.41 312.49,-449.43 297.02,-108.7 469.58,100.87 558.67,136.05l157.69 -174.86c-113.47,-99.2 -190.14,-171.58 -373.61,-211.53 -495.55,-107.93 -948.14,244.57 -926.51,755.85 34.67,818.73 1050.82,861.08 1300.36,457.75 -29.19,-38.44 -144.07,-139.52 -172.34,-158.17z"/>
  <path class="fil1" d="M12055.73 5541.74c37.65,92.93 133.9,219.79 190.26,311.68 457.81,746.51 335.25,406.03 355.17,1104.84l259.37 -1.87c10.05,-154.95 -12.9,-346.75 3.85,-491.87 12.1,-104.82 461.28,-751.91 540.88,-925.03l-285.63 6.43c-96.83,128.33 -268.53,464.82 -358.42,578.19 -22.56,28.45 -14.05,16.65 -31.13,31.96l-380.28 -615.32 -294.07 0.99z"/>
  <polygon class="fil1" points="21966.35,5785.16 22417.07,5784.06 22418.7,6962.41 22680.53,6956.57 22682.75,5787.19 23122.06,5782.21 23125.28,5542.17 21962.02,5540.14 "/>
  <polygon class="fil1" points="20677.46,5784.18 21116.77,5783.26 21117.6,6959.4 21374.67,6961.33 21373.51,5787.44 21821.55,5780.06 21825.05,5541 20674.33,5544.78 "/>
  <polygon class="fil1" points="10512.25,4910.01 10800.12,4909.4 10801.32,3324.74 10514.22,3325.69 10514.96,4649.65 "/>
  <polygon class="fil1" points="15770.57,6962.16 16032.37,6959.89 16035.81,5536.6 15770.63,5538.36 15774.25,6720.86 "/>
  <path class="fil1" d="M20830.44 3700.81c27.08,23.51 6.27,0.46 30.92,33.34l241.03 560 -519.37 -5.47 247.42 -587.87zm-373.85 856.89l764.42 5.26 146.07 352.15 315.13 1.29 -717.38 -1584.84 -253.96 5.2 -693.35 1578.81 290.64 -0.73 148.43 -357.14z"/>
  <g id="_2558415843824">
   <path class="fil2" d="M2814.09 5972.72c92.21,-68.05 193.58,83.96 91.71,138.69 -73.18,39.3 -207.33,-53.39 -91.71,-138.69zm520.75 -192.32c-27.16,-12.35 -5.26,2.34 -25.9,-17.6 -34.55,9.6 -10.49,-1.86 -41.45,23.68l-244.42 233.97c-38.92,-29.6 -33.21,-58.87 -115.6,-115.66 55.68,-76.42 240.12,-191.64 276.48,-265.3l-16.9 -28.23c-84.34,18.52 -204.93,222.59 -354.22,292.15 -39.17,18.25 -49.35,23.16 -71.03,54.65 -117.28,170.43 74.54,260.6 204.38,192.92 67.74,-35.28 60.71,-76.16 125.03,-126.18 32.36,-25.15 252.12,-199.11 263.63,-244.4z"/>
   <path class="fil2" d="M5912.35 3316.78l76.3 -0.51c12.54,-30.17 157.9,-160.51 194.8,-189.32 27.09,-21.15 39.88,-38.32 65.2,-60.19 28.43,-24.52 37.23,-27.7 66.56,-59.08 97.35,-104.19 125.62,-22.82 168.11,-84.18 52.41,-75.72 -28.66,-163.61 -103.16,-125.91 -39,19.73 -33.69,53.87 -39.53,99.08l-3.26 19.1c-10.56,17.27 -364.74,313.22 -425.02,401.01z"/>
   <path class="fil3" d="M3554.55 5929.97c21.53,17.43 51.5,40.74 81.94,57.95 14.21,20.8 -4.71,2.32 22.45,12.1 8.14,-25.05 3.74,-14.06 17.06,-33.05 3.94,-5.63 15.9,-17.93 22.13,-24.17 21.17,-21.16 22.88,-21.52 48.83,-42.45 96.8,-78 141.07,-154.48 212.47,-243.54 28.53,-35.59 17.03,-25.35 48.23,-40.52l-0.17 -7.28 -84.72 -23.02c-30.8,38.08 -61.06,53.47 -81.16,96.53 -57.46,10.83 -167.45,-12.74 -124.68,72.46 -67.68,52.92 -99.22,114.76 -162.38,174.99z"/>
   <path class="fil4" d="M2655.12 6713.11c-44.2,-63.24 -19.64,-125.11 68.92,-74.4l-6.57 60.99c-18.85,12.07 -30.13,15.75 -62.35,13.41zm875.69 -788.25l-57.6 -40.21c-19.22,47.34 -185.78,181.49 -234.63,227.28l-470.25 444.61c-55.48,43.3 -84.34,-34.92 -158.82,22.63 -125.46,96.95 58.71,291.08 157.98,158.07 56.24,-75.36 -23.83,-78.75 54.71,-150.06 85.53,-77.68 681.31,-618.33 708.61,-662.32z"/>
   <path class="fil4" d="M6555.14 2538.88c-31.71,33.28 -91.53,12.03 -87.22,-38.14 4.18,-48.79 10.29,-22.97 19.15,-30.97 50.38,-45.54 107.57,27.62 68.07,69.11zm-985.27 773.83l91.43 -0.06c51.05,-78.81 735.97,-650.48 774.26,-711.53 93.09,5.02 187.45,29.14 187.2,-89.65 -0.17,-93.35 -107.91,-132.85 -176.41,-81.34 -85.75,64.48 36.18,59.43 -109.1,187.87 -206,182.12 -427.24,362.78 -622.39,554.36 -50.69,49.79 -101.56,78.93 -144.99,140.35z"/>
   <path class="fil4" d="M5319.99 3230.39l74.18 49.31c16.82,-33.45 70.28,-80.15 100.93,-109.71l506.02 -465.17c68.37,-62.99 85.32,-9.75 137.02,-56.99 103.48,-94.5 -90.55,-225.67 -132.04,-86.21 -24.33,81.78 30.07,29.87 -72.15,121.7 -74.17,66.65 -580.87,542.28 -613.96,547.07z"/>
   <path class="fil4" d="M3893.71 6096.07c3.98,-8.19 -44.32,-19.23 -65.66,-29.26l-600.78 562.35c-114.27,112.86 -47.87,68.18 -133.6,81.33 -151.63,23.24 -74.18,242.45 58.16,165.97 75.34,-43.56 -4.16,-83.84 64.68,-150.41l218.8 -198.33c57.43,-49.68 428.17,-384.75 458.4,-431.65z"/>
   <path class="fil4" d="M3259.1 6306.99l78.63 0.63 -3.16 88.74c-34.3,15.23 -61.58,25.67 -85.49,-0.63 -26.07,-28.74 -5.29,-60.92 10.02,-88.74zm402.26 -299.47l-2.41 -7.49c-27.17,-9.79 -8.26,8.7 -22.45,-12.11l-268.73 253.37c-77.05,77.43 -44.92,10.05 -124.23,46.36 -66.8,53.84 -41.2,112.64 4.49,152.38 111.39,15.58 104.42,-16.45 121.23,-98.17 17.55,-85.19 274.65,-215.21 292.1,-334.34z"/>
   <path class="fil5" d="M4890.31 3812.13c-217.37,234.91 -334.61,25.59 -172.11,-66.55l-89.53 -17.42c-68.11,91.63 -42.69,232.69 80.73,260.07 112.99,-4.86 240.18,-123.23 324.54,-194.58 27.3,-24.65 47.33,-42.34 74.85,-66.65 52.53,-46.41 100.81,-92.37 150.22,-132.29 -22.27,-25.93 -39.48,-39.65 -71.62,-57.72 -13.43,31.12 -48.05,50.79 -73.69,72.32 -27.67,23.24 -46.71,39.69 -76.14,65.43 -32.86,36.97 -104.75,105.95 -147.25,137.39z"/>
   <path class="fil5" d="M3259.1 6306.99c-15.31,27.82 -36.09,60 -10.02,88.74 23.91,26.3 51.19,15.86 85.49,0.63l3.16 -88.74 -78.63 -0.63z"/>
   <path class="fil6" d="M4292.58 2235.39c113.45,-32.51 170.59,134.94 55.54,176.87 -118.31,43.08 -203.18,-134.55 -55.54,-176.87zm60.02 246c5.27,96.86 -12.87,469.91 12.53,495.41 63.81,63.98 52.37,-64.98 51.66,-99.56 -2.22,-110.01 0.69,-221.54 -0.11,-331.78 -0.65,-86.17 -5.16,-72.69 33.21,-134.71 24.2,-39.12 29.39,-85.57 15.91,-134.33 -56.33,-203.49 -400.33,-110.89 -301.13,119.02 29.24,67.78 54.37,33.35 57.55,115.07 5.62,144.19 -15.09,328.36 -0.25,490.52l56.69 -3.08 4.04 -515.67 69.9 -0.89z"/>
   <path class="fil6" d="M4975.39 7127.29c-51.91,108.42 -229.19,43.08 -179.36,-85.08 43.87,-112.85 237.31,-35.99 179.36,85.08zm-202.5 -725.16c-34.01,129.78 19.56,407.79 -3.26,542.33 -8.14,47.97 -30.25,38.22 -43.56,95.07 -55,234.76 288.17,286.66 319.36,75.98 19.02,-128.47 -65.98,-123.2 -72.91,-204.52 -13.97,-163.76 12.07,-361.19 -2.61,-534.69 -90.84,-1.17 -60.21,58.26 -60.05,293.97 0.17,250.24 24.02,294.38 -81.32,270.64l-7.24 -542.35 -48.41 3.57z"/>
   <path class="fil6" d="M4550.35 7421.99c72.16,-34.85 144.86,8.83 98.85,76.57 -22.93,33.77 -131.57,40.42 -98.85,-76.57zm20.21 -86.69c-42.51,34.12 -104.36,44.64 -91.99,145.88 17.45,142.64 246.83,142.14 240.16,-21.66 -4.33,-106.47 -71.49,-79.69 -83.06,-139.56 -10.95,-56.64 -2.89,-562.16 -3.37,-695.39l-12.81 -218.14 -34.26 2c-27.6,41.57 -13.29,813.55 -14.67,926.87z"/>
   <path class="fil6" d="M4645.73 1989.27c-90.27,28.05 -139.15,-41.25 -89.35,-89.27 50.35,-48.54 121.44,-2.45 89.35,89.27zm-35.38 77.26c60.93,-22.43 106.68,-47.66 106.83,-126.34 0.44,-207.18 -325.2,-115.67 -221.44,66.86 16.64,29.27 32.16,27.91 45.13,46.39 46.18,65.77 -9.52,752.33 12.26,935.23l57.7 1.31 -0.48 -923.45z"/>
   <path class="fil6" d="M5203.74 7230.1c-12.21,-76.57 98.53,-97.09 106.73,-23.09 9.71,87.49 -96.97,84.43 -106.73,23.09zm22.68 -947.38c-12.65,197.54 -3.76,437.34 -3.15,638.9 0.94,300.34 -20.68,129.25 -74.51,243.79 -40.9,86.99 29.33,180.93 121.73,171.85 87.34,-8.58 139.92,-125.57 76.09,-194.4 -44.54,-48.06 -59.44,-7.97 -62.02,-94.48 -7.55,-250.37 9.82,-521.76 -2.28,-789.95l-55.86 24.29z"/>
   <path class="fil6" d="M3893.88 2218.3c-31.68,-74.88 15.63,-136.53 76.05,-97.94 49.67,31.72 46.07,124.17 -76.05,97.94zm68.56 80.4c42.2,-32.51 88.39,-46.93 91.78,-120.43 2.81,-61.25 -29.71,-106.51 -79.1,-119.69 -151.75,-40.48 -189.7,137.56 -106.66,209.8 41.51,36.11 33.22,10.32 34.94,82.16 5.56,230.95 -11.7,492.93 -3.27,733.61 88.61,-10.21 57.54,-71.17 57.02,-161.36l5.29 -624.09z"/>
   <path class="fil6" d="M5131.69 6329.1c-73.28,13.31 -55.29,32.28 -54.46,112.35 0.55,53.58 -0.14,107.2 0.07,160.78 0.54,129.08 -10.53,57.57 -39.67,121.87 -22.72,50.16 9.12,91.26 44.79,101.07 51.53,14.16 92.01,-20.27 94.25,-64.79 3.52,-69.59 -36.09,-23.94 -42,-112.23 -6.76,-100.9 0.92,-215.3 -2.98,-319.05z"/>
   <path class="fil6" d="M4058.22 3038.19c75.59,-9.82 55.77,-8.56 55.56,-183.95 -0.29,-226.93 19.48,-117.13 44.48,-188.37 52.68,-150.09 -281.85,-88.44 -100.61,48.43l0.57 323.89z"/>
   <path class="fil6" d="M4731.9 2999.19c111.62,-142.14 -146.38,-199.38 -83.68,-11.32l83.68 11.32z"/>
   <path class="fil6" d="M4440.49 6410.36c-50.61,97.53 15.59,153.23 76.32,111.8 40.43,-27.61 35.05,-141.74 -76.32,-111.8z"/>
   <path class="fil7" d="M3338.77 5757.7c10.11,-54.61 12.85,-35.36 83.02,-91.14 42.49,-33.77 46.69,-58.54 90.46,-91.93 17.93,-13.68 36.13,-24.87 52.03,-39.87 33.41,-31.49 94.13,-114.11 141.27,-78 -6.07,44.31 -52.45,60.82 -81.2,81.37 -46.95,33.58 -39.15,50.96 -86.72,84.41 -76.11,53.52 -53.31,54.61 -141.3,121.68 -36.93,28.14 13.15,19.69 -57.56,13.48zm-138.6 -128.06c-17.05,-60.47 -22.16,-45.99 62.2,-110.93 72.72,-55.96 212.16,-236.2 287.44,-238.36 12.55,54.88 12.99,30.05 -20.8,59.61l-139.94 123.04c-40.26,43.74 -12.24,30.17 -85.3,85.73 -115.97,88.2 -32.37,52.89 -103.6,80.91zm-33.12 -18.38l16.9 28.23c35.46,-0.15 46.91,16 70.53,41.55 8.01,8.66 20.77,22.6 26.67,30.42 31.18,41.19 13.58,3.32 27.79,51.34 20.64,19.94 -1.26,5.25 25.9,17.6 52.13,2.4 80.86,47.68 106.63,71.32 23.46,-29.13 59.38,-54.27 87.04,-78.12 40.46,-34.9 53.58,-41.95 92.16,-79.11 53.18,-51.25 141.72,-109.08 180.44,-168.5 -7.59,-7.41 -3.62,-5.04 -18.83,-17.61l-57.45 -33.98c41.89,-73.48 86.85,-83.83 135.8,-134.48 213.4,-220.77 141.62,-129.61 229.28,-158.34 72.08,-23.64 53.29,-124.69 -11.69,-142.11 -51.55,-13.82 -71.41,8.99 -87.23,34.24 -40.89,67.06 39.38,30.25 -44.97,111.76 -60.64,58.6 -227.34,220.2 -274.81,245.43 -39.64,-21.88 -80.65,-70.38 -100.8,-108.81 37.64,-64.81 179.28,-146.51 196.06,-217.9l104.59 -4.56c28.66,-98.39 -29.27,-160.07 -118.03,-107.18 -0.6,37.81 17.37,76.33 1.59,98.15 -12.76,17.57 -139.39,76.69 -203.79,179.6 -52.89,-22.13 -49.56,-37.97 -87.18,-106.17 -21.23,-38.48 -38.77,-75.71 -54.4,-116.82 -34.62,-91.05 -61.23,-196.06 -54.91,-301.44l-126.24 -694.88c-8.23,-58.6 -1.03,-196.73 -36.32,-230.33 -68.41,52.91 -185.05,262.8 -232.8,378.14 -172.45,416.4 -118.01,843.07 97.65,1223.62 19.96,35.2 37.78,60.89 58.18,90.24 62.41,89.77 50.84,47.64 52.24,98.7z"/>
   <path class="fil2" d="M3349.05 3651.69c66.76,19.06 746.49,106.51 811.9,102.23 120.48,6.23 231.46,-28 355.34,14.04l108.47 21.09c71.45,14.5 153.51,47.75 208.36,77.13 48.08,-26.41 138.26,-126.59 185.09,-160.12 35.64,-31.15 60.6,-54.86 94.09,-83 31.05,-26.1 52.94,-47.44 79.61,-83.22 -213.36,-182.8 -620.38,-294.07 -976.06,-266.13 -181.25,14.23 -352.61,61.78 -498.05,129.73 -130.97,61.18 -291.41,166.09 -368.75,248.25z"/>
   <path class="fil1" d="M4157.59 6373.16c47.91,-15.14 11.07,3.49 35.32,-12.7 3.2,-2.15 6.02,-3.62 8.7,-6.17 15.74,-14.81 13.79,-37.81 5.5,-52.87 -73.09,-5.9 -135.55,-23.87 -196.47,-31.03 -67.58,-7.97 -82.99,47.29 -128.58,84.99l-562.08 512.51c-50.46,35.35 -62.17,-22.11 -137.41,42.85 -16.57,71 4.98,130.17 77.2,128.39 77.29,-1.91 83.37,-62.09 77.41,-130.67 91.66,-45.74 678.42,-601.62 699.65,-610.58 17.89,26.13 21.93,72.33 18.9,109.03 -3.54,43.14 -17.6,47.13 -52.43,81.13 -140.84,137.48 -228.9,150.76 -226.96,296.12 2.24,169.8 17.56,121.95 -110.21,156.75 -28.31,66.38 -25.48,106.32 39.37,142.43 114.42,-1.63 75.8,-66.59 98.27,-143.54 48.93,-167.42 8.27,-108.38 25.15,-200.97 9.46,-51.91 192.68,-203.24 227.58,-225.87l0.36 968.51c-29.31,34.61 -94.93,72.14 -37.85,143.33 42.53,53.02 105.59,19.73 142.79,-13.82 16.63,-127.5 -32.35,-82.85 -53.35,-140.95l8.35 -1133.92c53.62,7.86 30.1,0.96 40.79,37.05z"/>
   <path class="fil2" d="M5176.78 3158.86c14.92,-34.27 2.3,-12.93 25.44,-42.24l765.43 -719.69c72.28,-67.75 31.44,-0.69 154.73,-38.86 34.06,-117.8 -20.79,-186.76 -139.92,-126.82l-1.08 99.73c-73.61,34.31 -347.3,307.15 -423.52,376.4l-412.02 377.13 -7.28 -1208.95c-2.09,3.04 -3.89,7.07 -4.96,9.9 -19.69,51.94 -11.49,19.35 -11.32,157.58l-0.04 491.28c-0.09,112.99 5.79,219.56 8.7,331.33 2.59,98.83 -25.52,225.89 22.87,276.7l22.97 16.51z"/>
   <path class="fil2" d="M6042.46 2048.54c1.51,-31.8 53.58,-123.12 -44.12,-138.71 -83.02,-13.26 -93.1,53.92 -85.34,123.04 -35.83,16.42 -157.58,129.36 -191.41,163.77l-364.34 321.44c-52.35,56.4 -6.34,68.92 -84.67,88.06 -189.26,46.23 -104.48,200.32 -3.81,170.7 72.41,-21.32 49.79,-94.61 37.89,-150.79l358.47 -303.06c30.63,-25.53 57.51,-58.1 86.61,-84.56 29.83,-27.1 58.16,-47.52 85.69,-74.44 163.88,-160.22 33.98,-67.02 205.03,-115.45z"/>
   <path class="fil8" d="M4570.56 7335.3c1.38,-113.32 -12.93,-885.3 14.67,-926.87l34.26 -2 12.81 218.14c0.48,133.23 -7.58,638.75 3.37,695.39 11.57,59.87 78.73,33.09 83.06,139.56 6.67,163.8 -222.71,164.3 -240.16,21.66 -12.37,-101.24 49.48,-111.76 91.99,-145.88zm655.86 -1052.58l55.86 -24.29c12.1,268.19 -5.27,539.58 2.28,789.95 2.58,86.51 17.48,46.42 62.02,94.48 63.83,68.83 11.25,185.82 -76.09,194.4 -92.4,9.08 -162.63,-84.86 -121.73,-171.85 53.83,-114.54 75.45,56.55 74.51,-243.79 -0.61,-201.56 -9.5,-441.36 3.15,-638.9zm-453.53 119.41l48.41 -3.57 7.24 542.35c105.34,23.74 81.49,-20.4 81.32,-270.64 -0.16,-235.71 -30.79,-295.14 60.05,-293.97 14.68,173.5 -11.36,370.93 2.61,534.69 6.93,81.32 91.93,76.05 72.91,204.52 -31.19,210.68 -374.36,158.78 -319.36,-75.98 13.31,-56.85 35.42,-47.1 43.56,-95.07 22.82,-134.54 -30.75,-412.55 3.26,-542.33zm358.8 -73.03c3.9,103.75 -3.78,218.15 2.98,319.05 5.91,88.29 45.52,42.64 42,112.23 -2.24,44.52 -42.72,78.95 -94.25,64.79 -35.67,-9.81 -67.51,-50.91 -44.79,-101.07 29.14,-64.3 40.21,7.21 39.67,-121.87 -0.21,-53.58 0.48,-107.2 -0.07,-160.78 -0.83,-80.07 -18.82,-99.04 54.46,-112.35zm-691.2 81.26c111.37,-29.94 116.75,84.19 76.32,111.8 -60.73,41.43 -126.93,-14.27 -76.32,-111.8zm-233.38 -108.94c8.29,15.06 10.24,38.06 -5.5,52.87 -2.68,2.55 -5.5,4.02 -8.7,6.17 -24.25,16.19 12.59,-2.44 -35.32,12.7 -8.6,111.74 11.38,327.95 2.41,434.16 -4.02,47.78 -18.45,58.1 -13.02,111.56l76.29 6.6 -9.61 -426.6c-1.4,-68.06 -12.95,-108.48 17.39,-138.98 48.05,13.2 34.25,-1.47 36.99,57.39l-1.91 607.17c-15.75,50.11 4.06,4.96 -37.62,43.39 -103.37,95.3 66.91,195.35 113.53,103.69 39.12,-76.9 -32.22,-52.49 -27.01,-171.74 6.09,-139.57 -9.44,-549.65 12.38,-620.34 68.4,0.65 58.68,12.68 59.23,84.37l0.69 469.21c-0.4,205.68 2.41,411.33 5.42,616.97 1.51,102.79 3.01,205.99 2.78,308.78 -0.29,137.66 22.87,120.21 112.92,190.78l356.77 273.7c-8.92,-195.7 -1.59,-404.73 -0.97,-601.87 0.23,-76.89 -19.83,-223.44 20.92,-271.06 24.84,-29.06 121.29,-120.8 159.84,-135.3 6.49,165.68 5.51,343.59 2.97,509.73 -1.67,109.54 18.73,106.05 87.1,157.98 44.65,33.91 88.92,75.98 131.52,100.84 2.55,-179.38 -24.19,-199.61 54.54,-277.57 59.33,-58.78 100.52,-110.55 163.27,-168.02 104.46,-95.65 99.67,-50.04 98.1,-236.51 -0.9,-106.68 0.06,-213.25 0.19,-319.91 0.52,-436.3 -0.53,-872.42 1.04,-1308.7 -37.47,19.12 -43.22,35.74 -72.03,64.48 -21.7,21.64 -37.43,32.1 -59.02,55.22 -269.8,289.03 -835.06,471.81 -1245.58,408.84z"/>
   <path class="fil3" d="M5068.01 4073.81c19.83,26.61 41.17,51.4 59.7,77.26 18.2,25.41 29.05,46.51 51.64,69.39 85.37,-64.13 315.06,-284.76 393.06,-321.9 -28.22,-77.73 -85.83,-102.62 -137.49,-157.2 -44.48,-46.98 -108.81,-118.28 -177.81,-145.49 -59.86,48.35 -106.03,93.66 -169.65,149.89 -33.32,29.43 -67.06,55.59 -100.16,85.43 -149.98,128.53 -96.41,6.65 80.71,242.62z"/>
   <path class="fil1" d="M4975.39 7127.29c57.95,-121.07 -135.49,-197.93 -179.36,-85.08 -49.83,128.16 127.45,193.5 179.36,85.08z"/>
   <path class="fil1" d="M4550.35 7421.99c-32.72,116.99 75.92,110.34 98.85,76.57 46.01,-67.74 -26.69,-111.42 -98.85,-76.57z"/>
   <path class="fil1" d="M5203.74 7230.1c9.76,61.34 116.44,64.4 106.73,-23.09 -8.2,-74 -118.94,-53.48 -106.73,23.09z"/>
   <path class="fil1" d="M5188.56 3335.23c28.07,32.22 167.91,117.77 213.19,153.67 33.22,26.32 70.92,64.79 101.72,92.32 243,217.27 128.27,240.81 315.45,239.7l1119.92 0.27c232.69,0.06 495.11,-36.57 661.49,85.51 136.01,99.77 233.65,330.84 145.13,553.99 -31.5,79.42 -112.45,170.32 -169.12,207.76 -77.48,51.21 -183.5,72.15 -294.68,73.07l-1131.16 2.12c-94.84,-0.36 -273.13,-10.88 -359.59,3.36l1.36 1511.09 508.53 0.36 4.63 -1011.05c253.6,-61.78 1049.25,82.08 1446.94,-105.71 810.01,-382.49 681.05,-1647.29 -228.04,-1810.1 -210.39,-37.68 -532.03,-19.63 -756.86,-19.75 -169,-0.09 -646.49,-22.39 -778.82,4.43l-76.3 0.51 -251.05 -4.13 -91.43 0.06c-92.32,-0.64 -109.98,8.11 -175.7,-33.01l-74.18 -49.31 -12.1 4.67c-12.78,17.09 -12.95,31.9 -16.15,40.1l-31.76 29.73c-1.51,0.76 -4.52,2.43 -6.15,3.24 -63.87,31.3 -42.85,4.33 -65.27,27.1z"/>
   <polygon class="fil1" points="2127.17,6255.69 2642.4,6257.76 2643.68,3316.32 2125.56,3315.69 "/>
   <path class="fil2" d="M4648.37 5618.4c-85.3,59.9 -420.31,50.04 -529.84,23.47l-110.88 -25.58c-31.19,15.17 -19.69,4.92 -48.22,40.52 -71.41,89.06 -115.68,165.55 -212.48,243.55 -25.94,20.9 -27.64,21.28 -48.81,42.43 -6.24,6.25 -18.2,18.55 -22.14,24.18 -13.32,19 -8.91,7.99 -17.05,33.06l2.41 7.49c182.89,53.2 204.84,110.92 524.9,145.88 596.97,65.21 1060.69,-185.88 1388.96,-616.43l-194.27 -165.21c-67.66,-52.35 -133.29,-116.14 -199.49,-159.78 -88.09,118.86 -330.84,367.09 -533.09,406.42z"/>
   <path class="fil1" d="M3441.47 5851.73l31.75 32.91 57.58 40.23 23.75 5.1c134.12,-127.91 242.75,-187.38 368.22,-342.48 -32.59,-35.86 -21.45,-4.33 -50.18,-28.08l-71.48 -33.42c-38.71,59.42 -127.26,117.26 -180.45,168.49 -38.56,37.16 -51.68,44.22 -92.15,79.14 -27.65,23.84 -63.58,48.97 -87.04,78.11z"/>
   <path class="fil1" d="M4731.9 2999.19l-83.68 -11.32c-62.7,-188.06 195.3,-130.82 83.68,11.32zm-673.68 39l-0.57 -323.89c-181.24,-136.87 153.29,-198.52 100.61,-48.43 -25,71.24 -44.77,-38.56 -44.48,188.37 0.21,175.39 20.03,174.13 -55.56,183.95zm294.38 -556.8l-69.9 0.89 -4.04 515.67 -56.69 3.08c-14.84,-162.16 5.87,-346.33 0.25,-490.52 -3.18,-81.72 -28.31,-47.29 -57.55,-115.07 -99.2,-229.91 244.8,-322.51 301.13,-119.02 13.48,48.76 8.29,95.21 -15.91,134.33 -38.37,62.02 -33.86,48.54 -33.21,134.71 0.8,110.24 -2.11,221.77 0.11,331.78 0.71,34.58 12.15,163.54 -51.66,99.56 -25.4,-25.5 -7.26,-398.55 -12.53,-495.41zm-390.16 -182.69l-5.29 624.09c0.52,90.19 31.59,151.15 -57.02,161.36 -8.43,-240.68 8.83,-502.66 3.27,-733.61 -1.72,-71.84 6.57,-46.05 -34.94,-82.16 -83.04,-72.24 -45.09,-250.28 106.66,-209.8 49.39,13.18 81.91,58.44 79.1,119.69 -3.39,73.5 -49.58,87.92 -91.78,120.43zm647.91 -232.17l0.48 923.45 -57.7 -1.31c-21.78,-182.9 33.92,-869.46 -12.26,-935.23 -12.97,-18.48 -28.49,-17.12 -45.13,-46.39 -103.76,-182.53 221.88,-274.04 221.44,-66.86 -0.15,78.68 -45.9,103.91 -106.83,126.34zm578.21 1268.7c22.42,-22.77 1.4,4.2 65.27,-27.1 1.63,-0.81 4.64,-2.48 6.15,-3.24l31.76 -29.73c3.2,-8.2 3.37,-23.01 16.15,-40.1 -9.93,-12.45 -5.81,-8.18 -20.14,-19.69l-43.62 -26.95c-37.67,-22.22 -29,-23.95 -67.35,-29.56l-22.97 -16.51c-48.39,-50.81 -20.28,-177.87 -22.87,-276.7 -2.91,-111.77 -8.79,-218.34 -8.7,-331.33l0.04 -491.28c-0.17,-138.23 -8.37,-105.64 11.32,-157.58 1.07,-2.83 2.87,-6.86 4.96,-9.9 92.11,-19.69 68.55,-151.51 -50.63,-143.03 -43.48,27.34 -73.98,66.73 -38.35,119.73 33.7,50.13 39.2,-1.26 36.65,144.96 -2.19,125.13 -0.4,251.83 -0.48,377.15 -0.13,174.4 28.22,591.59 -0.9,738.72l-48.96 -22.89c-2.27,-59.04 -10,-491.37 5.9,-535.38 10.11,-27.97 51.62,-99.04 -24.47,-111.78 -71.6,-11.99 -68.56,58.41 -48.59,95.59 31.1,57.95 18.44,57.51 18.17,167.07 -0.32,122.2 0.46,244.97 -1.24,367.11 -52.2,-11.88 -52.26,-5.59 -58.64,-46.65l0.94 -297.61c0.34,-129.53 0.32,-259.36 3.2,-388.85 113.65,-78.03 47.95,-188.25 -46.3,-160.36 -40.6,12.01 -60.23,57.94 -40.81,107.18 26.94,68.16 39.29,-6.34 35.87,121.56 -5.58,207.45 -0.5,417.31 -3.84,629.37l-78.25 -9.35 5.08 -1592.81c-44.14,-24.43 -80.15,-58.91 -121.97,-93.51 -58.02,-47.98 -322.63,-273.99 -353.9,-279.39 -2.75,200.7 -3.94,402.9 -4.11,603.62 -0.06,84.88 18.21,221.08 -26.36,271.27 -30.77,34.65 -120.3,122.01 -157.22,140.3l-0.88 -596.87 -224.46 -180.76c-3.83,298.17 18.26,195.01 -70.59,298.2l-128.57 122.97c-47.11,38.77 -100.57,93.79 -101.51,161.01 -5.54,397.95 -16,1074.21 0.13,1404.91 61.44,-15.96 185.38,-88.43 367.13,-134.54 274.74,-69.69 589.73,-54.46 858.47,31.22 188.18,60 259.11,119.92 349.49,151.51z"/>
   <path class="fil8" d="M4292.58 2235.39c-147.64,42.32 -62.77,219.95 55.54,176.87 115.05,-41.93 57.91,-209.38 -55.54,-176.87z"/>
   <path class="fil8" d="M4645.73 1989.27c32.09,-91.72 -39,-137.81 -89.35,-89.27 -49.8,48.02 -0.92,117.32 89.35,89.27z"/>
   <path class="fil8" d="M3893.88 2218.3c122.12,26.23 125.72,-66.22 76.05,-97.94 -60.42,-38.59 -107.73,23.06 -76.05,97.94z"/>
   <path class="fil2" d="M3200.17 5629.64c71.23,-28.02 -12.37,7.29 103.6,-80.91 73.06,-55.56 45.04,-41.99 85.3,-85.73l139.94 -123.04c33.79,-29.56 33.35,-4.73 20.8,-59.61 -75.28,2.16 -214.72,182.4 -287.44,238.36 -84.36,64.94 -79.25,50.46 -62.2,110.93z"/>
   <path class="fil2" d="M3338.77 5757.7c70.71,6.21 20.63,14.66 57.56,-13.48 87.99,-67.07 65.19,-68.16 141.3,-121.68 47.57,-33.45 39.77,-50.83 86.72,-84.41 28.75,-20.55 75.13,-37.06 81.2,-81.37 -47.14,-36.11 -107.86,46.51 -141.27,78 -15.9,15 -34.1,26.19 -52.03,39.87 -43.77,33.39 -47.97,58.16 -90.46,91.93 -70.17,55.78 -72.91,36.53 -83.02,91.14z"/>
   <path class="fil9" d="M3191.78 3820.56c35.29,33.6 28.09,171.73 36.32,230.33l126.24 694.88c15.77,-153.71 1.25,-235.14 65.73,-384.1 47.28,-109.21 105.7,-207.24 166.39,-278.73 64.38,-75.84 152.69,-150.13 248.65,-207.88 172.66,-103.91 271.1,-82.89 325.85,-121.13 -65.42,4.27 -745.15,-83.18 -811.9,-102.25l-157.28 168.88z"/>
   <path class="fil4" d="M3828.13 5538.56l82.06 42.57c16.38,-32.59 67.39,-74.83 97.25,-103.61l492.97 -453.18c66.6,-61.37 83.13,-9.52 133.48,-55.52 100.81,-92.06 -88.22,-219.86 -128.64,-83.99 -23.71,79.66 29.31,29.09 -70.27,118.56 -72.27,64.93 -574.64,530.5 -606.85,535.17z"/>
   <path class="fil4" d="M4224.98 5626.92l-41.7 26.41 80.92 8.17 52.07 -42.43c57.7,-53.16 72.01,-8.22 115.62,-48.11 87.35,-79.71 -76.43,-190.43 -111.39,-72.76 -20.56,69.04 25.37,25.21 -60.89,102.75 -10.42,9.35 -7.15,0.82 -34.63,25.97z"/>
  </g>
 </g>
</svg>
